<mxfile host="app.diagrams.net" agent="Mozilla/5.0 (Macintosh; Intel Mac OS X 10_15_7) AppleWebKit/537.36 (KHTML, like Gecko) Chrome/128.0.0.0 Safari/537.36" version="24.7.13">
  <diagram name="Page-1" id="97916047-d0de-89f5-080d-49f4d83e522f">
    <mxGraphModel grid="1" page="1" gridSize="10" guides="1" tooltips="1" connect="1" arrows="1" fold="1" pageScale="1.5" pageWidth="1700" pageHeight="1100" background="none" math="0" shadow="0">
      <root>
        <mxCell id="0" />
        <mxCell id="1" parent="0" />
        <mxCell id="2" value="COSI 10a&#xa;Problem Solving in Python" style="rounded=1;fillColor=#09555B;strokeColor=none;shadow=0;fontStyle=1;fontColor=#EEEEEE;fontSize=14;labelBackgroundColor=none;" vertex="1" parent="1">
          <mxGeometry x="450" y="1181" width="200" height="60" as="geometry" />
        </mxCell>
        <mxCell id="3" value="COSI 12b&#xa;Programming in Java" style="rounded=1;fillColor=#09555B;strokeColor=#BAC8D3;shadow=0;fontStyle=1;fontSize=14;verticalAlign=middle;labelBackgroundColor=none;fontColor=#EEEEEE;" vertex="1" parent="1">
          <mxGeometry x="690" y="1181" width="220" height="60" as="geometry" />
        </mxCell>
        <mxCell id="29" value="" style="edgeStyle=elbowEdgeStyle;elbow=vertical;strokeWidth=4;endArrow=block;endFill=1;fontStyle=1;shadow=0;labelBackgroundColor=none;fontColor=default;exitX=1;exitY=0.5;exitDx=0;exitDy=0;entryX=0;entryY=0.5;entryDx=0;entryDy=0;" edge="1" parent="1" source="2" target="3">
          <mxGeometry x="22" y="165.5" width="100" height="100" as="geometry">
            <mxPoint x="22" y="265.5" as="sourcePoint" />
            <mxPoint x="670" y="1270" as="targetPoint" />
          </mxGeometry>
        </mxCell>
        <mxCell id="E5pTGBiRu4o85fgaaUaz-56" value="COSI 114a&#xa;Fundamentals of NLP I" style="rounded=1;fillColor=#d80073;strokeColor=#A50040;shadow=0;fontStyle=1;fontSize=14;labelBackgroundColor=none;fontColor=#ffffff;" vertex="1" parent="1">
          <mxGeometry x="700" y="1080" width="200" height="60" as="geometry" />
        </mxCell>
        <mxCell id="E5pTGBiRu4o85fgaaUaz-57" value="COSI 115b&#xa;Fundamentals of NLP II" style="rounded=1;fillColor=#d80073;strokeColor=#A50040;shadow=0;fontStyle=1;fontSize=14;labelBackgroundColor=none;fontColor=#ffffff;" vertex="1" parent="1">
          <mxGeometry x="560" y="940" width="200" height="60" as="geometry" />
        </mxCell>
        <mxCell id="E5pTGBiRu4o85fgaaUaz-58" value="COSI 231a&#xa;Advanced ML for NLP" style="rounded=1;fillColor=#d80073;strokeColor=#A50040;shadow=0;fontStyle=1;fontSize=14;labelBackgroundColor=none;fontColor=#ffffff;" vertex="1" parent="1">
          <mxGeometry x="560" y="830" width="200" height="60" as="geometry" />
        </mxCell>
        <mxCell id="E5pTGBiRu4o85fgaaUaz-59" value="COSI 232b&#xa;Information Extraction" style="rounded=1;fillColor=#d80073;strokeColor=#A50040;shadow=0;fontStyle=1;fontSize=14;labelBackgroundColor=none;fontColor=#ffffff;" vertex="1" parent="1">
          <mxGeometry x="560" y="740" width="200" height="60" as="geometry" />
        </mxCell>
        <mxCell id="E5pTGBiRu4o85fgaaUaz-60" value="COSI 230b&#xa;NL Annotation for ML" style="rounded=1;fillColor=#d80073;strokeColor=#A50040;shadow=0;fontStyle=1;fontSize=14;labelBackgroundColor=none;fontColor=#ffffff;" vertex="1" parent="1">
          <mxGeometry x="320" y="940" width="200" height="60" as="geometry" />
        </mxCell>
        <mxCell id="E5pTGBiRu4o85fgaaUaz-61" value="COSI 216a&#xa;Topics in NLP" style="rounded=1;fillColor=#d80073;strokeColor=#A50040;shadow=0;fontStyle=1;fontSize=14;labelBackgroundColor=none;fontColor=#ffffff;" vertex="1" parent="1">
          <mxGeometry x="840" y="830" width="200" height="60" as="geometry" />
        </mxCell>
        <mxCell id="E5pTGBiRu4o85fgaaUaz-62" value="COSI 217b&#xa;NLP Systems" style="rounded=1;fillColor=#d80073;strokeColor=#A50040;shadow=0;fontStyle=1;fontSize=14;labelBackgroundColor=none;fontColor=#ffffff;" vertex="1" parent="1">
          <mxGeometry x="1080" y="830" width="200" height="60" as="geometry" />
        </mxCell>
        <mxCell id="E5pTGBiRu4o85fgaaUaz-63" value="COSI 136a&#xa;Speech Recognition" style="rounded=1;fillColor=#d80073;strokeColor=#A50040;shadow=0;fontStyle=1;fontSize=14;labelBackgroundColor=none;fontColor=#ffffff;" vertex="1" parent="1">
          <mxGeometry x="1080" y="940" width="200" height="60" as="geometry" />
        </mxCell>
        <mxCell id="E5pTGBiRu4o85fgaaUaz-64" value="COSI 135b&#xa;Computational Semantics" style="rounded=1;fillColor=#d80073;strokeColor=#A50040;shadow=0;fontStyle=1;fontSize=14;labelBackgroundColor=none;fontColor=#ffffff;" vertex="1" parent="1">
          <mxGeometry x="960" y="1080" width="200" height="60" as="geometry" />
        </mxCell>
        <mxCell id="E5pTGBiRu4o85fgaaUaz-65" value="COSI 132a&#xa;Information Retrieval" style="rounded=1;fillColor=#d80073;strokeColor=#A50040;shadow=0;fontStyle=1;fontSize=14;labelBackgroundColor=none;fontColor=#ffffff;" vertex="1" parent="1">
          <mxGeometry x="840" y="940" width="200" height="60" as="geometry" />
        </mxCell>
        <mxCell id="RsRgmeptovzmle2ncGq4-30" value="" style="edgeStyle=elbowEdgeStyle;elbow=vertical;strokeWidth=4;endArrow=block;endFill=1;fontStyle=1;shadow=0;labelBackgroundColor=none;fontColor=default;exitX=0.5;exitY=0;exitDx=0;exitDy=0;entryX=0.5;entryY=1;entryDx=0;entryDy=0;" edge="1" parent="1" source="3" target="E5pTGBiRu4o85fgaaUaz-56">
          <mxGeometry x="22" y="165.5" width="100" height="100" as="geometry">
            <mxPoint x="660" y="1221" as="sourcePoint" />
            <mxPoint x="700" y="1221" as="targetPoint" />
          </mxGeometry>
        </mxCell>
        <mxCell id="RsRgmeptovzmle2ncGq4-31" value="" style="edgeStyle=elbowEdgeStyle;elbow=vertical;strokeWidth=4;endArrow=block;endFill=1;fontStyle=1;shadow=0;labelBackgroundColor=none;fontColor=default;entryX=0.5;entryY=1;entryDx=0;entryDy=0;exitX=0.5;exitY=0;exitDx=0;exitDy=0;" edge="1" parent="1" source="E5pTGBiRu4o85fgaaUaz-56" target="E5pTGBiRu4o85fgaaUaz-65">
          <mxGeometry x="22" y="165.5" width="100" height="100" as="geometry">
            <mxPoint x="800" y="1070" as="sourcePoint" />
            <mxPoint x="810" y="1150" as="targetPoint" />
          </mxGeometry>
        </mxCell>
        <mxCell id="RsRgmeptovzmle2ncGq4-32" value="" style="edgeStyle=elbowEdgeStyle;elbow=vertical;strokeWidth=4;endArrow=block;endFill=1;fontStyle=1;shadow=0;labelBackgroundColor=none;fontColor=default;entryX=0.5;entryY=1;entryDx=0;entryDy=0;exitX=0.5;exitY=0;exitDx=0;exitDy=0;" edge="1" parent="1" source="E5pTGBiRu4o85fgaaUaz-56" target="E5pTGBiRu4o85fgaaUaz-57">
          <mxGeometry x="22" y="165.5" width="100" height="100" as="geometry">
            <mxPoint x="810" y="1090" as="sourcePoint" />
            <mxPoint x="950" y="1010" as="targetPoint" />
          </mxGeometry>
        </mxCell>
        <mxCell id="RsRgmeptovzmle2ncGq4-34" value="" style="edgeStyle=elbowEdgeStyle;elbow=vertical;strokeWidth=4;endArrow=block;endFill=1;fontStyle=1;shadow=0;labelBackgroundColor=none;fontColor=default;entryX=0.5;entryY=1;entryDx=0;entryDy=0;exitX=0.5;exitY=0;exitDx=0;exitDy=0;" edge="1" parent="1" source="E5pTGBiRu4o85fgaaUaz-56" target="E5pTGBiRu4o85fgaaUaz-63">
          <mxGeometry x="22" y="165.5" width="100" height="100" as="geometry">
            <mxPoint x="820" y="1100" as="sourcePoint" />
            <mxPoint x="680" y="1020" as="targetPoint" />
          </mxGeometry>
        </mxCell>
        <mxCell id="RsRgmeptovzmle2ncGq4-35" value="" style="edgeStyle=elbowEdgeStyle;elbow=vertical;strokeWidth=4;endArrow=block;endFill=1;fontStyle=1;shadow=0;labelBackgroundColor=none;fontColor=default;exitX=1;exitY=0.5;exitDx=0;exitDy=0;" edge="1" parent="1" source="3" target="E5pTGBiRu4o85fgaaUaz-64">
          <mxGeometry x="22" y="165.5" width="100" height="100" as="geometry">
            <mxPoint x="830" y="1110" as="sourcePoint" />
            <mxPoint x="690" y="1030" as="targetPoint" />
            <Array as="points">
              <mxPoint x="1060" y="1210" />
            </Array>
          </mxGeometry>
        </mxCell>
        <mxCell id="RsRgmeptovzmle2ncGq4-36" value="" style="edgeStyle=elbowEdgeStyle;elbow=vertical;strokeWidth=4;endArrow=block;endFill=1;fontStyle=1;shadow=0;labelBackgroundColor=none;fontColor=default;entryX=0.5;entryY=1;entryDx=0;entryDy=0;exitX=0.5;exitY=0;exitDx=0;exitDy=0;" edge="1" parent="1" source="E5pTGBiRu4o85fgaaUaz-57" target="E5pTGBiRu4o85fgaaUaz-58">
          <mxGeometry x="22" y="165.5" width="100" height="100" as="geometry">
            <mxPoint x="840" y="1120" as="sourcePoint" />
            <mxPoint x="700" y="1040" as="targetPoint" />
          </mxGeometry>
        </mxCell>
        <mxCell id="RsRgmeptovzmle2ncGq4-37" value="" style="edgeStyle=elbowEdgeStyle;elbow=vertical;strokeWidth=4;endArrow=block;endFill=1;fontStyle=1;shadow=0;labelBackgroundColor=none;fontColor=default;entryX=0.5;entryY=1;entryDx=0;entryDy=0;exitX=0.5;exitY=0;exitDx=0;exitDy=0;" edge="1" parent="1" source="E5pTGBiRu4o85fgaaUaz-58" target="E5pTGBiRu4o85fgaaUaz-59">
          <mxGeometry x="22" y="165.5" width="100" height="100" as="geometry">
            <mxPoint x="850" y="1130" as="sourcePoint" />
            <mxPoint x="710" y="1050" as="targetPoint" />
          </mxGeometry>
        </mxCell>
        <mxCell id="RsRgmeptovzmle2ncGq4-38" value="" style="edgeStyle=elbowEdgeStyle;elbow=vertical;strokeWidth=4;endArrow=block;endFill=1;fontStyle=1;shadow=0;labelBackgroundColor=none;fontColor=default;entryX=0.5;entryY=1;entryDx=0;entryDy=0;exitX=0.5;exitY=0;exitDx=0;exitDy=0;" edge="1" parent="1" source="E5pTGBiRu4o85fgaaUaz-57" target="E5pTGBiRu4o85fgaaUaz-61">
          <mxGeometry x="22" y="165.5" width="100" height="100" as="geometry">
            <mxPoint x="860" y="1140" as="sourcePoint" />
            <mxPoint x="720" y="1060" as="targetPoint" />
            <Array as="points" />
          </mxGeometry>
        </mxCell>
        <mxCell id="RsRgmeptovzmle2ncGq4-39" value="" style="edgeStyle=elbowEdgeStyle;elbow=vertical;strokeWidth=4;endArrow=block;endFill=1;fontStyle=1;shadow=0;labelBackgroundColor=none;fontColor=default;entryX=0.5;entryY=1;entryDx=0;entryDy=0;exitX=0.5;exitY=0;exitDx=0;exitDy=0;" edge="1" parent="1" source="E5pTGBiRu4o85fgaaUaz-57" target="E5pTGBiRu4o85fgaaUaz-62">
          <mxGeometry x="22" y="165.5" width="100" height="100" as="geometry">
            <mxPoint x="870" y="1150" as="sourcePoint" />
            <mxPoint x="730" y="1070" as="targetPoint" />
          </mxGeometry>
        </mxCell>
        <mxCell id="RsRgmeptovzmle2ncGq4-40" value="" style="edgeStyle=elbowEdgeStyle;elbow=vertical;strokeWidth=4;endArrow=block;endFill=1;fontStyle=1;shadow=0;labelBackgroundColor=none;fontColor=default;exitX=0;exitY=0.5;exitDx=0;exitDy=0;" edge="1" parent="1" source="E5pTGBiRu4o85fgaaUaz-57" target="E5pTGBiRu4o85fgaaUaz-60">
          <mxGeometry x="22" y="165.5" width="100" height="100" as="geometry">
            <mxPoint x="880" y="1160" as="sourcePoint" />
            <mxPoint x="740" y="1080" as="targetPoint" />
          </mxGeometry>
        </mxCell>
      </root>
    </mxGraphModel>
  </diagram>
</mxfile>
